<svg width="113" height="114" viewBox="0 0 113 114" fill="none" xmlns="http://www.w3.org/2000/svg">
<path fill-rule="evenodd" clip-rule="evenodd" d="M4.48991 17.3005C0 25.1469 0 35.6602 0 56.687C0 77.7138 0 88.2272 4.48991 96.0735C7.49821 101.331 11.8563 105.689 17.1135 108.697C24.9598 113.187 35.4732 113.187 56.5 113.187C77.5268 113.187 88.0402 113.187 95.8865 108.697C101.144 105.689 105.502 101.331 108.51 96.0735C113 88.2272 113 77.7138 113 56.687C113 35.6602 113 25.1469 108.51 17.3005C105.502 12.0433 101.144 7.68522 95.8865 4.67692C88.0402 0.187012 77.5268 0.187012 56.5 0.187012C35.4732 0.187012 24.9598 0.187012 17.1135 4.67692C11.8563 7.68522 7.49821 12.0433 4.48991 17.3005ZM56.6985 94.4863C77.4646 94.4863 94.2988 77.6521 94.2988 56.886C94.2988 36.1199 77.4646 19.2856 56.6985 19.2856C35.9324 19.2856 19.0981 36.1199 19.0981 56.886C19.0981 77.6521 35.9324 94.4863 56.6985 94.4863Z" fill="#6B0FA6"/>
<path d="M36 53.8537C36 43.5444 44.3574 35.187 54.6667 35.187H64.4746C71.9445 35.187 78 41.2426 78 48.7124V65.6218C78 72.0091 72.8221 77.187 66.4348 77.187H59.3333C46.4467 77.187 36 66.7403 36 53.8537Z" fill="#6B0FA6"/>
</svg>
