<?xml version="1.0" encoding="UTF-8"?>
<svg width="645px" height="645px" viewBox="0 0 645 645" version="1.1" xmlns="http://www.w3.org/2000/svg" xmlns:xlink="http://www.w3.org/1999/xlink">
    <title>Group 2</title>
    <defs>
        <linearGradient x1="50%" y1="0%" x2="50%" y2="100%" id="linearGradient-1">
            <stop stop-color="#4D4D4D" offset="0%"></stop>
            <stop stop-color="#464646" offset="100%"></stop>
        </linearGradient>
        <filter x="-0.9%" y="-0.9%" width="101.9%" height="101.9%" filterUnits="objectBoundingBox" id="filter-2">
            <feGaussianBlur stdDeviation="2" in="SourceGraphic"></feGaussianBlur>
        </filter>
        <linearGradient x1="1.38344197e-14%" y1="3.60822483e-14%" x2="100%" y2="100%" id="linearGradient-3">
            <stop stop-color="#AEF3FF" offset="0%"></stop>
            <stop stop-color="#00D9FF" offset="100%"></stop>
        </linearGradient>
        <path d="M411.664496,127.594241 C419.876278,131.727902 427.782429,136.375239 435.340253,141.493776 L392.229468,184.375094 C393.31851,184.348917 394.410793,184.335753 395.506167,184.335753 C406.117551,184.335753 416.4389,185.571125 426.332824,187.905187 L456.527228,157.869364 C463.184768,163.716407 469.471976,169.971143 475.349373,176.594299 L454.039298,197.794057 C462.274624,201.81223 470.031492,206.651879 477.201968,212.205626 L491.809974,197.671851 C496.955084,205.190642 501.626547,213.05596 505.781668,221.225331 L496.482072,230.478474 C502.351047,237.270996 507.539395,244.662347 511.941854,252.547809 L516.980975,247.533775 C520.30487,257.104666 522.95864,266.986466 524.88648,277.123657 L523.091747,278.911161 C526.153458,289.144352 528.005129,299.896022 528.48169,311.001952 L528.526671,310.955084 C528.578588,312.879396 528.604712,314.810109 528.604712,316.746891 C528.604712,328.442296 527.652112,339.916358 525.819891,351.096475 L523.410695,353.499603 C510.780593,397.0791 476.255418,431.425965 432.449679,443.990838 L350.174949,525.834273 C338.93679,527.657032 327.403161,528.604712 315.64704,528.604712 C313.700203,528.604712 311.759467,528.578723 309.825165,528.527074 L389.731404,449.035642 C378.568418,448.561568 367.761493,446.719633 357.475674,443.674028 L275.818104,524.905684 C265.628286,522.9878 255.695185,520.347736 246.074607,517.041008 L314.318419,449.151569 L315.64704,449.158029 C329.558684,449.158029 342.971832,447.034733 355.576898,443.096125 C301.576176,426.222363 262.407622,376.035156 262.407622,316.746891 C262.407622,257.458626 301.576176,207.271419 355.574693,190.398162 C353.773949,189.834309 351.954824,189.308195 350.120079,188.820105 L411.664496,127.594241 Z M509.548429,404.324607 C488.25034,450.769939 450.769939,488.25034 404.324607,509.548429 L509.548429,404.324607 Z M256.230153,433.323298 C264.770871,437.779769 273.855519,441.339168 283.358639,443.876243 L221.728404,505.405759 C213.505171,501.251596 205.587996,496.581211 198.019634,491.437289 L256.230153,433.323298 Z M213.806576,400.181937 C219.49524,407.133486 225.866514,413.50476 232.818063,419.193424 L175.604011,476.407068 C168.879643,470.470675 162.529325,464.120357 156.592932,457.395989 L213.806576,400.181937 Z M189.123757,349.641361 C191.660832,359.144481 195.220231,368.229129 199.676702,376.769847 L141.562711,434.980366 C136.418789,427.412004 131.748404,419.494829 127.594241,411.271596 L189.123757,349.641361 Z M192.219895,273.41623 C187.467106,287.021128 184.885015,301.633112 184.885015,316.843784 L184.895024,318.163692 L116.464586,386.096859 C113.131859,376.520964 110.471,366.634013 108.537958,356.491549 L192.219895,273.41623 Z M316.499539,104.395288 C318.439129,104.395288 320.372639,104.421322 322.299738,104.473061 L104.473061,322.299738 C104.421322,320.372639 104.395288,318.439129 104.395288,316.499539 C104.395288,304.791683 105.343884,293.305383 107.168411,282.113304 L282.113304,107.168411 C293.305383,105.343884 304.791683,104.395288 316.499539,104.395288 Z M228.675393,123.451571 L123.451571,228.675393 C144.748923,182.229557 182.229557,144.748923 228.675393,123.451571 Z M356.491549,108.537958 C366.634013,110.471 376.520964,113.131859 386.096859,116.464586 L318.165649,184.89152 C317.725537,184.887187 317.284913,184.885015 316.843784,184.885015 C301.633112,184.885015 287.021128,187.467106 273.41623,192.219895 L356.491549,108.537958 Z" id="path-4"></path>
        <filter x="-4.7%" y="-3.8%" width="109.4%" height="109.4%" filterUnits="objectBoundingBox" id="filter-5">
            <feOffset dx="0" dy="4" in="SourceAlpha" result="shadowOffsetOuter1"></feOffset>
            <feGaussianBlur stdDeviation="6" in="shadowOffsetOuter1" result="shadowBlurOuter1"></feGaussianBlur>
            <feColorMatrix values="0 0 0 0 0   0 0 0 0 0   0 0 0 0 0  0 0 0 0.401606206 0" type="matrix" in="shadowBlurOuter1"></feColorMatrix>
        </filter>
        <filter x="-4.2%" y="-3.3%" width="108.5%" height="108.5%" filterUnits="objectBoundingBox" id="filter-6">
            <feGaussianBlur stdDeviation="3" in="SourceAlpha" result="shadowBlurInner1"></feGaussianBlur>
            <feOffset dx="0" dy="-6" in="shadowBlurInner1" result="shadowOffsetInner1"></feOffset>
            <feComposite in="shadowOffsetInner1" in2="SourceAlpha" operator="arithmetic" k2="-1" k3="1" result="shadowInnerInner1"></feComposite>
            <feColorMatrix values="0 0 0 0 0   0 0 0 0 0   0 0 0 0 0  0 0 0 0.300699301 0" type="matrix" in="shadowInnerInner1" result="shadowMatrixInner1"></feColorMatrix>
            <feGaussianBlur stdDeviation="3" in="SourceAlpha" result="shadowBlurInner2"></feGaussianBlur>
            <feOffset dx="0" dy="6" in="shadowBlurInner2" result="shadowOffsetInner2"></feOffset>
            <feComposite in="shadowOffsetInner2" in2="SourceAlpha" operator="arithmetic" k2="-1" k3="1" result="shadowInnerInner2"></feComposite>
            <feColorMatrix values="0 0 0 0 1   0 0 0 0 1   0 0 0 0 1  0 0 0 0.504397946 0" type="matrix" in="shadowInnerInner2" result="shadowMatrixInner2"></feColorMatrix>
            <feMerge>
                <feMergeNode in="shadowMatrixInner1"></feMergeNode>
                <feMergeNode in="shadowMatrixInner2"></feMergeNode>
            </feMerge>
        </filter>
    </defs>
    <g id="Page-1" stroke="none" stroke-width="1" fill="none" fill-rule="evenodd">
        <g id="Artboard" transform="translate(-433, -239)">
            <g id="logo_wth_name_black" transform="translate(414, 148)">
                <g id="Group-Copy" transform="translate(0, 72)">
                    <g id="Group-2" transform="translate(25, 25)">
                        <path d="M197.41916,-5.31731358e-15 L435.58084,7.97597037e-15 C504.227783,-4.63426848e-15 529.120823,7.14757206 554.217119,20.5692182 C579.313415,33.9908643 599.009136,53.6865845 612.430782,78.7828808 C625.852428,103.879177 633,128.772217 633,197.41916 L633,435.58084 C633,504.227783 625.852428,529.120823 612.430782,554.217119 C599.009136,579.313415 579.313415,599.009136 554.217119,612.430782 C529.120823,625.852428 504.227783,633 435.58084,633 L197.41916,633 C128.772217,633 103.879177,625.852428 78.7828808,612.430782 C53.6865845,599.009136 33.9908643,579.313415 20.5692182,554.217119 C7.14757206,529.120823 1.54475616e-15,504.227783 -2.65865679e-15,435.58084 L5.31731358e-15,197.41916 C-3.08951232e-15,128.772217 7.14757206,103.879177 20.5692182,78.7828808 C33.9908643,53.6865845 53.6865845,33.9908643 78.7828808,20.5692182 C103.879177,7.14757206 128.772217,3.08951232e-15 197.41916,-5.31731358e-15 Z" id="Rectangle" fill="url(#linearGradient-1)" filter="url(#filter-2)"></path>
                        <g id="Shape-Copy">
                            <use fill="black" fill-opacity="1" filter="url(#filter-5)" xlink:href="#path-4"></use>
                            <use fill="url(#linearGradient-3)" fill-rule="evenodd" xlink:href="#path-4"></use>
                            <use fill="black" fill-opacity="1" filter="url(#filter-6)" xlink:href="#path-4"></use>
                        </g>
                    </g>
                </g>
            </g>
        </g>
    </g>
</svg>